# Blender 3.6.4
# www.blender.org
mtllib bacteriophage-arm.mtl
o Plane.001
v -0.113264 -0.028878 0.001589
v -0.096805 -0.065177 0.001589
v -0.045777 -0.099576 0.001589
v 0.060053 -0.099150 0.001589
v 0.093404 -0.065160 0.001589
v 0.117336 -0.049267 0.001589
v 0.848026 -0.049267 0.001589
v 0.850769 -0.065254 0.001589
v 0.886472 -0.065490 0.001589
v 0.886762 -0.030938 0.001589
v 0.853164 0.005118 0.001589
v 0.816690 0.022285 0.001589
v 0.631853 0.022538 0.001589
v 0.630627 0.041240 0.001589
v 0.493557 0.040108 0.001589
v 0.491173 0.057491 0.001589
v 0.287638 0.057491 0.001589
v 0.284777 0.073741 0.001589
v 0.079471 0.073860 0.001589
v 0.079045 0.086925 0.001589
v -0.028880 0.086925 0.001589
v -0.062010 0.073042 0.001589
v -0.096946 0.054731 0.001589
v -0.113503 0.021618 0.001589
v 0.113674 -0.065517 0.001589
v -0.078531 -0.082164 0.001589
vn -0.0000 -0.0000 1.0000
vt 0.000000 0.000000
s 0
f 4/1/1 5/1/1 3/1/1
f 7/1/1 8/1/1 9/1/1
f 26/1/1 3/1/1 22/1/1
f 5/1/1 25/1/1 6/1/1
f 10/1/1 7/1/1 9/1/1
f 26/1/1 22/1/1 1/1/1
f 3/1/1 5/1/1 21/1/1
f 5/1/1 19/1/1 21/1/1
f 17/1/1 19/1/1 6/1/1
f 10/1/1 11/1/1 7/1/1
f 13/1/1 6/1/1 7/1/1
f 5/1/1 6/1/1 19/1/1
f 13/1/1 7/1/1 12/1/1
f 6/1/1 13/1/1 15/1/1
f 15/1/1 17/1/1 6/1/1
f 15/1/1 13/1/1 14/1/1
f 16/1/1 17/1/1 15/1/1
f 22/1/1 24/1/1 1/1/1
f 22/1/1 23/1/1 24/1/1
f 18/1/1 19/1/1 17/1/1
f 22/1/1 3/1/1 21/1/1
f 2/1/1 26/1/1 1/1/1
f 21/1/1 19/1/1 20/1/1
f 7/1/1 11/1/1 12/1/1
