####
#
# OBJ File Generated by Meshlab
#
####
# Object 33.obj
#
# Vertices: 26
# Faces: 18
#Reference: https://freesvg.org/tachi
####
vn 0.000000 0.000000 1.000000
v -0.156692 -0.199584 0.000000 0.517647 0.517647 0.517647
vn 0.000000 0.000000 1.000000
v -0.148726 -0.193861 0.000000 0.521569 0.521569 0.521569
vn 0.000000 0.000000 1.000000
v -0.139263 -0.185116 0.000000 0.521569 0.521569 0.521569
vn 0.000000 0.000000 1.000000
v -0.165151 -0.206289 0.000000 0.313725 0.262745 0.290196
vn 0.000000 0.000000 1.000000
v -0.179362 -0.219313 0.000000 0.501961 0.501961 0.501961
vn 0.000000 0.000000 1.000000
v -0.198520 -0.232524 0.000000 0.521569 0.521569 0.521569
vn 0.000000 0.000000 1.000000
v -0.203640 -0.237087 0.000000 0.521569 0.521569 0.521569
vn 0.000000 0.000000 1.000000
v -0.007703 -0.006939 0.000000 0.125490 0.133333 0.149020
vn 0.000000 0.000000 1.000000
v 0.013527 0.010262 0.000000 0.200000 0.215686 0.243137
vn 0.000000 0.000000 1.000000
v 0.000445 0.013988 0.000000 0.215686 0.231373 0.262745
vn 0.000000 0.000000 1.000000
v -0.020971 -0.052397 0.000000 0.227451 0.247059 0.282353
vn 0.000000 0.000000 1.000000
v -0.032260 -0.043934 0.000000 0.235294 0.254902 0.290196
vn 0.000000 0.000000 1.000000
v -0.043281 -0.045546 0.000000 0.290196 0.129412 0.125490
vn 0.000000 0.000000 1.000000
v -0.018381 -0.061901 0.000000 0.321569 0.141176 0.145098
vn 0.000000 0.000000 1.000000
v -0.033340 -0.045224 0.000000 0.211765 0.101961 0.086275
vn 0.000000 0.000000 1.000000
v -0.039628 -0.054159 0.000000 0.211765 0.101961 0.086275
vn 0.000000 0.000000 1.000000
v -0.028301 -0.059844 0.000000 0.250980 0.117647 0.105882
vn 0.000000 0.000000 1.000000
v -0.030841 -0.064761 0.000000 0.223529 0.105882 0.090196
vn 0.000000 0.000000 1.000000
v -0.096575 -0.129489 0.000000 0.482353 0.482353 0.517647
vn 0.000000 0.000000 1.000000
v -0.030817 -0.060007 0.000000 0.270588 0.172549 0.176471
vn 0.000000 0.000000 1.000000
v -0.038174 -0.055453 0.000000 0.243137 0.156863 0.156863
vn 0.000000 0.000000 1.000000
v -0.083086 -0.127684 0.000000 0.478431 0.482353 0.529412
vn 0.000000 0.000000 1.000000
v -0.135460 -0.182705 0.000000 0.474510 0.466667 0.474510
vn 0.000000 0.000000 1.000000
v -0.158739 -0.192136 0.000000 0.454902 0.435294 0.447059
vn 0.000000 0.000000 1.000000
v -0.213811 -0.239008 0.000000 0.521569 0.521569 0.521569
vn 0.000000 0.000000 1.000000
v -0.204533 -0.239070 0.000000 0.517647 0.517647 0.517647
# 26 vertices, 0 vertices normals

f 1//1 2//2 3//3
f 4//4 2//2 1//1
f 4//4 5//5 2//2
f 6//6 5//5 4//4
f 6//6 7//7 5//5
f 8//8 9//9 10//10
f 8//8 11//11 9//9
f 12//12 11//11 8//8
f 13//13 14//14 15//15
f 16//16 14//14 13//13
f 17//17 14//14 16//16
f 18//18 14//14 17//17
f 19//19 20//20 21//21
f 19//19 22//22 20//20
f 19//19 23//23 22//22
f 24//24 23//23 19//19
f 25//25 23//23 24//24
f 25//25 26//26 23//23
# 18 faces, 0 coords texture

# End of File
